<svg xmlns="http://www.w3.org/2000/svg" version="1.1" xmlns:xlink="http://www.w3.org/1999/xlink" xmlns:svgjs="http://svgjs.dev/svgjs" width="1000" height="361" viewBox="0 0 1000 361"><g transform="matrix(1,0,0,1,-0.6060606060606233,0.03887420104391026)"><svg viewBox="0 0 396 143" data-background-color="#ffffff" preserveAspectRatio="xMidYMid meet" height="361" width="1000" xmlns="http://www.w3.org/2000/svg" xmlns:xlink="http://www.w3.org/1999/xlink"><g id="tight-bounds" transform="matrix(1,0,0,1,0.2400000000000091,-0.015398921743155825)"><svg viewBox="0 0 395.52 143.03079596453418" height="143.03079596453418" width="395.52"><g><svg viewBox="0 0 397.4975999999999 143.74594994435682" height="143.03079596453418" width="395.52"><g><rect width="397.4975999999999" height="4.402748592266733" x="0" y="78.99645494387984" fill="#7a26c1" opacity="1" stroke-width="0" stroke="transparent" fill-opacity="1" class="rect-o-0" data-fill-palette-color="primary" rx="1%" id="o-0" data-palette-color="#7a26c1"></rect></g><g transform="matrix(1,0,0,1,0.9887999999999693,94.92472341119037)"><svg viewBox="0 0 395.52 48.82122653316645" height="48.82122653316645" width="395.52"><g id="textblocktransform"><svg viewBox="0 0 395.52 48.82122653316645" height="48.82122653316645" width="395.52" id="textblock"><g><svg viewBox="0 0 395.52 48.82122653316645" height="48.82122653316645" width="395.52"><g transform="matrix(1,0,0,1,0,0)"><svg width="395.52" viewBox="5.349999904632568 -38.599998474121094 319.5799865722656 39.44999694824219" height="48.82122653316645" data-palette-color="#7a26c1"><g class="undefined-text-0" data-fill-palette-color="primary" id="text-0"><path d="M27.3 0L17.55-16.05 10.2-16.05 10.2 0 5.35 0 5.35-37.9 18.6-37.9Q31-37.9 31-26.9L31-26.9Q31-22.55 28.93-19.88 26.85-17.2 22.7-16.4L22.7-16.4 32.85 0 27.3 0ZM10.2-33.65L10.2-20.3 18.6-20.3Q26-20.3 26.05-26.9L26.05-26.9Q26.05-30.4 24.2-32.02 22.35-33.65 18.6-33.65L18.6-33.65 10.2-33.65ZM65.6 0L61.5-11.05 45.7-11.05 41.65 0 36.65 0 50.9-38.35 56.3-38.35 70.6 0 65.6 0ZM47.35-15.4L59.85-15.4 53.6-32.3 47.35-15.4ZM102.45-37.9L107.5-37.9 93.25 0.45 87.85 0.45 73.55-37.9 78.65-37.9 90.55-5.6 102.45-37.9ZM138.49-37.9L143.34-37.9 143.34 0 138.04 0 119.39-29.75 119.39 0 114.54 0 114.54-37.9 119.79-37.9 138.49-8.15 138.49-37.9ZM169.59 0.85Q163.74 0.85 159.67-1.73 155.59-4.3 153.54-8.78 151.49-13.25 151.49-18.9L151.49-18.9Q151.49-24.45 153.54-28.9 155.59-33.35 159.67-35.98 163.74-38.6 169.59-38.6L169.59-38.6Q175.39-38.6 179.44-35.98 183.49-33.35 185.57-28.88 187.64-24.4 187.64-18.9L187.64-18.9Q187.64-13.25 185.59-8.78 183.54-4.3 179.47-1.73 175.39 0.85 169.59 0.85L169.59 0.85ZM169.59-3.4Q173.69-3.4 176.64-5.45 179.59-7.5 181.12-11.05 182.64-14.6 182.64-19.05L182.64-19.05Q182.64-23.35 181.09-26.83 179.54-30.3 176.59-32.33 173.64-34.35 169.59-34.35L169.59-34.35Q165.39-34.35 162.44-32.3 159.49-30.25 157.99-26.75 156.49-23.25 156.49-18.9L156.49-18.9Q156.49-14.45 157.99-10.95 159.49-7.45 162.44-5.43 165.39-3.4 169.59-3.4L169.59-3.4ZM220.19-37.9L220.19-33.55 208.79-33.55 208.79 0 203.89 0 203.89-33.55 192.49-33.55 192.49-37.9 220.19-37.9ZM232.39-4.2L250.74-4.2 250.74 0 227.54 0 227.54-37.9 250.49-37.9 250.49-33.7 232.39-33.7 232.39-21.15 247.99-21.15 247.99-16.95 232.39-16.95 232.39-4.2ZM263.68-4.35L285.98-4.35 285.98 0 257.73 0 257.73-4.25 278.38-33.55 258.38-33.55 258.38-37.9 284.33-37.9 284.33-33.65 263.68-4.35ZM319.93 0L315.83-11.05 300.03-11.05 295.98 0 290.98 0 305.23-38.35 310.63-38.35 324.93 0 319.93 0ZM301.68-15.4L314.18-15.4 307.93-32.3 301.68-15.4Z" fill="#7a26c1" data-fill-palette-color="primary"></path></g></svg></g></svg></g></svg></g></svg></g><g transform="matrix(1,0,0,1,143.85476201788447,0)"><svg viewBox="0 0 109.78807596423096 67.47093506883604" height="67.47093506883604" width="109.78807596423096"><g><svg xmlns="http://www.w3.org/2000/svg" data-name="Layer 1" viewBox="2.4305503368377686 20.79172134399414 95.13905334472656 58.46828842163086" x="0" y="0" height="67.47093506883604" width="109.78807596423096" class="icon-icon-0" data-fill-palette-color="accent" id="icon-0"><path d="M62.78 23l32 55.42 1.3-2.26h-64l1.3 2.26L65.37 23a1.5 1.5 0 0 0-2.59-1.51L30.79 77a1.51 1.51 0 0 0 1.3 2.26h64A1.51 1.51 0 0 0 97.37 77l-32-55.42A1.5 1.5 0 0 0 62.78 23Z" fill="#a437db" data-fill-palette-color="accent"></path><path d="M34.63 23l32 55.42 1.3-2.26h-64l1.3 2.26L37.22 23a1.5 1.5 0 0 0-2.59-1.51L2.63 77a1.51 1.51 0 0 0 1.3 2.26h64A1.51 1.51 0 0 0 69.21 77l-32-55.42A1.5 1.5 0 0 0 34.63 23Z" fill="#a437db" data-fill-palette-color="accent"></path></svg></g></svg></g><g></g></svg></g><defs></defs></svg><rect width="395.52" height="143.03079596453418" fill="none" stroke="none" visibility="hidden"></rect></g></svg></g></svg>